<svg width="103" height="20" viewBox="0 0 103 20" fill="none" xmlns="http://www.w3.org/2000/svg">
<path d="M68.9397 17.0385V6.15055H65.2695V4.18652H74.9994V6.15055H71.2909V17.0385H68.9397Z" fill="#0E0E0E"/>
<path d="M55.7949 17.0384V4.35802C56.6551 4.20547 57.8212 4.09106 59.3887 4.09106C61.1091 4.09106 62.3516 4.45336 63.1735 5.13982C63.9382 5.76907 64.4352 6.77968 64.4352 7.98098C64.4352 9.20135 64.0529 10.1929 63.3456 10.8794C62.3898 11.8137 60.937 12.2713 59.274 12.2713C58.8343 12.2713 58.452 12.2523 58.127 12.176V17.0384H55.7949ZM58.127 6.01696V10.3264C58.4329 10.4217 58.7961 10.4408 59.274 10.4408C61.0326 10.4408 62.1031 9.56364 62.1031 8.07632C62.1031 6.64621 61.1091 5.90254 59.4842 5.90254C58.8343 5.90254 58.3755 5.95975 58.127 6.01696Z" fill="#0E0E0E"/>
<path d="M53.386 9.94506V16.4473C52.564 16.7524 50.9583 17.1719 49.257 17.1719C47.0779 17.1719 45.4148 16.6189 44.1914 15.4558C43.0445 14.3689 42.3945 12.6718 42.3945 10.7269C42.4136 6.64626 45.3001 4.05298 49.5629 4.05298C51.1495 4.05298 52.392 4.37714 52.9846 4.66316L52.4685 6.55092C51.7612 6.22676 50.901 5.99794 49.5438 5.99794C46.7911 5.99794 44.8604 7.61874 44.8604 10.6124C44.8604 13.5299 46.6573 15.2651 49.3335 15.2651C50.1937 15.2651 50.8054 15.1507 51.1113 15.0172V11.7947H48.8365V9.94506H53.386Z" fill="#0E0E0E"/>
<path d="M32.6901 6.01722L35.0031 5.3689V7.75242H37.2396V9.5067H35.0031V13.6064C35.0031 14.7505 35.3089 15.3225 36.2073 15.3225C36.6279 15.3225 36.8573 15.3034 37.1249 15.2272L37.1631 17.0005C36.819 17.134 36.1882 17.2484 35.4618 17.2484C34.5825 17.2484 33.8752 16.9624 33.4356 16.4857C32.9195 15.9518 32.6901 15.0937 32.6901 13.8733V9.5067H31.3711V7.75242H32.6901V6.01722Z" fill="#0E0E0E"/>
<path d="M29.9381 11.4705V14.8075C29.9381 15.6465 29.9764 16.4664 30.0911 17.0385H27.9692L27.7972 16.0088H27.7398C27.1855 16.7334 26.2106 17.2482 24.9872 17.2482C23.1139 17.2482 22.0625 15.8944 22.0625 14.4833C22.0625 12.157 24.1461 10.9557 27.5869 10.9748V10.8222C27.5869 10.212 27.3384 9.20142 25.6945 9.20142C24.7769 9.20142 23.8211 9.48744 23.1903 9.88787L22.7315 8.36241C23.4197 7.94291 24.624 7.54248 26.0959 7.54248C29.0779 7.54248 29.9381 9.43023 29.9381 11.4705ZM27.6443 13.7778V12.5002C25.9812 12.4812 24.3946 12.8244 24.3946 14.2354C24.3946 15.1507 24.9872 15.5702 25.7327 15.5702C26.6885 15.5702 27.3575 14.96 27.5869 14.2926C27.6443 14.121 27.6443 13.9494 27.6443 13.7778Z" fill="#0E0E0E"/>
<path d="M11.7754 17.0384V3.5H14.1266V9.01072H14.1648C14.4516 8.57215 14.853 8.20985 15.3309 7.96196C15.8088 7.69501 16.3631 7.54246 16.9557 7.54246C18.5423 7.54246 20.2054 8.59122 20.2054 11.5659V17.0384H17.8542V11.8137C17.8542 10.479 17.3571 9.44929 16.0573 9.44929C15.1397 9.44929 14.4898 10.0595 14.2222 10.765C14.1457 10.9747 14.1266 11.2226 14.1266 11.4705V17.0384H11.7754Z" fill="#0E0E0E"/>
<path d="M9.53869 14.8266L9.921 16.6762C9.36665 16.9432 8.14325 17.2483 6.57577 17.2483C2.48503 17.2483 0 14.6931 0 10.7651C0 6.53195 2.96292 3.97681 6.90074 3.97681C8.4491 3.97681 9.53869 4.30097 10.0166 4.54885L9.51958 6.41754C8.90788 6.15058 8.04767 5.92177 6.99631 5.92177C4.37748 5.92177 2.48503 7.56163 2.48503 10.6507C2.48503 13.4918 4.12897 15.2843 6.9772 15.2843C7.91386 15.2843 8.90788 15.0936 9.53869 14.8266Z" fill="#0E0E0E"/>
<g clip-path="url(#clip0_14020_1046)">
<path d="M102.232 3.28936H101.787C101.302 1.67233 99.8064 0.5 98.0277 0.5C96.6937 0.5 95.4809 1.18722 94.7937 2.23831H92.2064C91.4787 1.18722 90.3064 0.5 88.9723 0.5C87.1936 0.5 85.6979 1.67233 85.2128 3.28936H84.7681C84.3234 3.28936 84 3.65319 84 4.05746C84 4.46173 84.3638 4.82556 84.7681 4.82556H85.0511C85.2532 6.80639 86.9106 8.38298 88.9723 8.38298C91.1553 8.38298 92.8936 6.60427 92.8936 4.42129C92.8936 4.17874 92.8532 3.97662 92.8128 3.73407H94.1468C94.1064 3.93619 94.066 4.17874 94.066 4.42129C94.066 6.60427 95.8447 8.38298 97.9873 8.38298C100.009 8.38298 101.706 6.80639 101.909 4.82552H102.192C102.636 4.82552 102.96 4.46169 102.96 4.05742C102.96 3.65316 102.636 3.28936 102.232 3.28936ZM88.9723 7.37233C87.3957 7.37233 86.1021 6.07873 86.1021 4.46169C86.1021 2.84466 87.3957 1.55105 88.9723 1.55105C90.5489 1.55105 91.8425 2.84466 91.8425 4.46169C91.8425 6.07873 90.5489 7.37233 88.9723 7.37233ZM98.0277 7.37233C96.4511 7.37233 95.1575 6.07873 95.1575 4.46169C95.1575 2.84466 96.4511 1.55105 98.0277 1.55105C99.6043 1.55105 100.898 2.84466 100.898 4.46169C100.898 6.07873 99.6447 7.37233 98.0277 7.37233Z" fill="#0E0E0E"/>
<path d="M86.0213 14.6893C86.0213 13.1531 87.2745 11.8999 88.7702 11.8999H103V9.87866H88.7702C86.1425 9.87866 84 12.0212 84 14.6893C84 17.3574 86.1425 19.4999 88.7702 19.4999H103V17.4787H88.7702C87.234 17.4787 86.0213 16.2254 86.0213 14.6893Z" fill="#362FDD"/>
<path d="M101.017 14.6893C101.017 13.1531 101.3 11.8999 101.664 11.8999H88.7685C87.2323 11.8999 86.0195 13.1531 86.0195 14.6893C86.0195 16.2254 87.2727 17.4786 88.7685 17.4786H101.664C101.3 17.4786 101.017 16.2254 101.017 14.6893Z" fill="#F3F3F3"/>
</g>
<defs>
<clipPath id="clip0_14020_1046">
<rect width="19" height="19" fill="white" transform="translate(84 0.5)"/>
</clipPath>
</defs>
</svg>
