<svg width="14" height="9" viewBox="0 0 14 9" fill="none" xmlns="http://www.w3.org/2000/svg">
<path d="M10.208 0.580929C9.99957 0.374391 9.6632 0.375892 9.45666 0.584281C9.25012 0.792671 9.25162 1.12904 9.46001 1.33557L10.7088 2.57325C11.2156 3.07556 11.5632 3.42125 11.7985 3.71417C11.8749 3.80936 11.9346 3.89316 11.9809 3.96867L1.33398 3.96867C1.04058 3.96867 0.802734 4.20652 0.802734 4.49992C0.802734 4.79332 1.04058 5.03117 1.33398 5.03117L11.9809 5.03117C11.9346 5.10668 11.8749 5.19048 11.7985 5.28567C11.5632 5.57858 11.2156 5.92428 10.7088 6.42659L9.46001 7.66426C9.25162 7.8708 9.25012 8.20717 9.45666 8.41556C9.6632 8.62395 9.99957 8.62545 10.208 8.41891L11.4792 7.15893C11.958 6.68439 12.3494 6.29654 12.6269 5.95097C12.9155 5.59161 13.1244 5.22686 13.1802 4.78903C13.1924 4.69304 13.1986 4.59648 13.1986 4.49992C13.1986 4.40336 13.1924 4.30679 13.1802 4.2108C13.1244 3.77297 12.9155 3.40822 12.6269 3.04887C12.3494 2.70329 11.958 2.31544 11.4792 1.8409L10.208 0.580929Z" fill="white"/>
</svg>
