<svg width="17" height="11" viewBox="0 0 17 11" fill="none" xmlns="http://www.w3.org/2000/svg">
<path d="M16.0042 1.54514C16.2362 1.26671 16.1986 0.852898 15.9201 0.620871C15.6417 0.388845 15.2279 0.426464 14.9959 0.704895L10.279 6.36511C9.33155 7.50208 8.66503 8.29944 8.08692 8.82148C7.52229 9.33134 7.13262 9.49339 6.75002 9.49339C6.36741 9.49339 5.97775 9.33134 5.41312 8.82148C4.835 8.29944 4.16848 7.50208 3.221 6.3651L2.00416 4.9049C1.77214 4.62646 1.35833 4.58885 1.0799 4.82087C0.801464 5.0529 0.763845 5.46671 0.995871 5.74514L2.24648 7.24587C3.15234 8.33293 3.87779 9.2035 4.53348 9.79559C5.21078 10.4072 5.90314 10.8059 6.75002 10.8059C7.5969 10.8059 8.28925 10.4072 8.96655 9.79559C9.62223 9.20351 10.3477 8.33295 11.2535 7.2459L16.0042 1.54514Z" fill="#362FDD" fill-opacity="0.8"/>
</svg>
